<svg xmlns="http://www.w3.org/2000/svg" width="23.852" height="23" viewBox="0 0 23.852 23">
  <g id="그룹_75" data-name="그룹 75" transform="translate(-109 -123)">
    <g id="그룹_60" data-name="그룹 60" transform="translate(245.852 -244) rotate(90)">
      <g id="패스_8" data-name="패스 8" transform="translate(368 113)">
        <path d="M 20.17053031921387 22.35239601135254 C 19.59507942199707 22.35239601135254 18.86404037475586 22.1978874206543 18.01757049560547 22.01899719238281 C 16.86652946472168 21.77572631835938 15.56190967559814 21.49999618530273 14.14286041259766 21.49999618530273 L 7.857140064239502 21.49999618530273 C 3.800400018692017 21.49999618530273 0.5 18.1995964050293 0.5 14.14285659790039 L 0.5 7.857146739959717 C 0.5 3.800396919250488 3.800400018692017 0.4999968409538269 7.857140064239502 0.4999968409538269 L 14.14286041259766 0.4999968409538269 C 18.19960021972656 0.4999968409538269 21.5 3.800396919250488 21.5 7.857146739959717 L 21.5 20.3989372253418 C 21.5 21.18574714660645 21.37583923339844 21.73211669921875 21.13097953796387 22.02285766601562 C 21.00177001953125 22.1762866973877 20.77582931518555 22.35239601135254 20.17053031921387 22.35239601135254 Z" stroke="none"/>
        <path d="M 7.857139587402344 0.9999961853027344 C 4.076099395751953 0.9999961853027344 1 4.07609748840332 1 7.857147216796875 L 1 14.14285659790039 C 1 17.92389678955078 4.076099395751953 20.99999618530273 7.857139587402344 20.99999618530273 L 14.14286041259766 20.99999618530273 C 15.61416053771973 20.99999618530273 16.94594955444336 21.28146743774414 18.1209602355957 21.5297966003418 C 18.94000053405762 21.70289611816406 19.64734077453613 21.85239601135254 20.17053031921387 21.85239601135254 C 20.620849609375 21.85239601135254 20.71361923217773 21.74223709106445 20.7485408782959 21.70076751708984 C 20.82415008544922 21.61099624633789 21 21.3044376373291 21 20.3989372253418 L 21 7.857147216796875 C 21 4.07609748840332 17.92390060424805 0.9999961853027344 14.14286041259766 0.9999961853027344 L 7.857139587402344 0.9999961853027344 M 7.857139587402344 -3.814697265625e-06 L 14.14286041259766 -3.814697265625e-06 C 18.48224067687988 -3.814697265625e-06 22 3.517766952514648 22 7.857147216796875 L 22 20.3989372253418 C 22 24.73831748962402 18.48223876953125 21.99999618530273 14.14286041259766 21.99999618530273 L 7.857139587402344 21.99999618530273 C 3.517759323120117 21.99999618530273 0 18.48223686218262 0 14.14285659790039 L 0 7.857147216796875 C 0 3.517766952514648 3.517759323120117 -3.814697265625e-06 7.857139587402344 -3.814697265625e-06 Z" stroke="none" fill="#000"/>
      </g>
      <path id="ic_more" d="M12,8.513a1.564,1.564,0,0,0,.833-.239,1.437,1.437,0,0,0,.552-.635,1.341,1.341,0,0,0,.085-.818,1.393,1.393,0,0,0-.41-.725,1.53,1.53,0,0,0-.768-.387,1.583,1.583,0,0,0-.867.081,1.485,1.485,0,0,0-.673.521A1.36,1.36,0,0,0,10.5,7.1a1.376,1.376,0,0,0,.439,1A1.547,1.547,0,0,0,12,8.513Zm0,7.078a1.564,1.564,0,0,0-.833.239,1.436,1.436,0,0,0-.552.635,1.341,1.341,0,0,0-.085.818,1.393,1.393,0,0,0,.41.725,1.53,1.53,0,0,0,.768.388,1.583,1.583,0,0,0,.867-.081,1.484,1.484,0,0,0,.673-.521,1.36,1.36,0,0,0,.253-.786,1.376,1.376,0,0,0-.439-1A1.547,1.547,0,0,0,12,15.591Zm0-4.955a1.564,1.564,0,0,0-.833.239,1.436,1.436,0,0,0-.552.635,1.341,1.341,0,0,0-.085.818,1.394,1.394,0,0,0,.41.725,1.529,1.529,0,0,0,.768.387,1.583,1.583,0,0,0,.867-.081,1.484,1.484,0,0,0,.673-.521,1.36,1.36,0,0,0,.253-.786,1.377,1.377,0,0,0-.439-1A1.547,1.547,0,0,0,12,10.636Z" transform="translate(367 112.374)"/>
    </g>
    <g id="그룹_74" data-name="그룹 74" transform="translate(244.852 -245) rotate(90)">
      <g id="패스_8-2" data-name="패스 8" transform="translate(368 113)" fill="#f4f4f4">
        <path d="M 20.17053031921387 22.35239601135254 C 19.59507942199707 22.35239601135254 18.86404037475586 22.1978874206543 18.01757049560547 22.01899719238281 C 16.86652946472168 21.77572631835938 15.56190967559814 21.49999618530273 14.14286041259766 21.49999618530273 L 7.857140064239502 21.49999618530273 C 3.800400018692017 21.49999618530273 0.5 18.1995964050293 0.5 14.14285659790039 L 0.5 7.857146739959717 C 0.5 3.800396919250488 3.800400018692017 0.4999968409538269 7.857140064239502 0.4999968409538269 L 14.14286041259766 0.4999968409538269 C 18.19960021972656 0.4999968409538269 21.5 3.800396919250488 21.5 7.857146739959717 L 21.5 20.3989372253418 C 21.5 21.18574714660645 21.37583923339844 21.73211669921875 21.13097953796387 22.02285766601562 C 21.00177001953125 22.1762866973877 20.77582931518555 22.35239601135254 20.17053031921387 22.35239601135254 Z" stroke="none"/>
        <path d="M 7.857139587402344 0.9999961853027344 C 4.076099395751953 0.9999961853027344 1 4.07609748840332 1 7.857147216796875 L 1 14.14285659790039 C 1 17.92389678955078 4.076099395751953 20.99999618530273 7.857139587402344 20.99999618530273 L 14.14286041259766 20.99999618530273 C 15.61416053771973 20.99999618530273 16.94594955444336 21.28146743774414 18.1209602355957 21.5297966003418 C 18.94000053405762 21.70289611816406 19.64734077453613 21.85239601135254 20.17053031921387 21.85239601135254 C 20.620849609375 21.85239601135254 20.71361923217773 21.74223709106445 20.7485408782959 21.70076751708984 C 20.82415008544922 21.61099624633789 21 21.3044376373291 21 20.3989372253418 L 21 7.857147216796875 C 21 4.07609748840332 17.92390060424805 0.9999961853027344 14.14286041259766 0.9999961853027344 L 7.857139587402344 0.9999961853027344 M 7.857139587402344 -3.814697265625e-06 L 14.14286041259766 -3.814697265625e-06 C 18.48224067687988 -3.814697265625e-06 22 3.517766952514648 22 7.857147216796875 L 22 20.3989372253418 C 22 24.73831748962402 18.48223876953125 21.99999618530273 14.14286041259766 21.99999618530273 L 7.857139587402344 21.99999618530273 C 3.517759323120117 21.99999618530273 0 18.48223686218262 0 14.14285659790039 L 0 7.857147216796875 C 0 3.517766952514648 3.517759323120117 -3.814697265625e-06 7.857139587402344 -3.814697265625e-06 Z" stroke="none" fill="#000"/>
      </g>
      <path id="ic_more-2" data-name="ic_more" d="M12,8.513a1.564,1.564,0,0,0,.833-.239,1.437,1.437,0,0,0,.552-.635,1.341,1.341,0,0,0,.085-.818,1.393,1.393,0,0,0-.41-.725,1.53,1.53,0,0,0-.768-.387,1.583,1.583,0,0,0-.867.081,1.485,1.485,0,0,0-.673.521A1.36,1.36,0,0,0,10.5,7.1a1.376,1.376,0,0,0,.439,1A1.547,1.547,0,0,0,12,8.513Zm0,7.078a1.564,1.564,0,0,0-.833.239,1.436,1.436,0,0,0-.552.635,1.341,1.341,0,0,0-.085.818,1.393,1.393,0,0,0,.41.725,1.53,1.53,0,0,0,.768.388,1.583,1.583,0,0,0,.867-.081,1.484,1.484,0,0,0,.673-.521,1.36,1.36,0,0,0,.253-.786,1.376,1.376,0,0,0-.439-1A1.547,1.547,0,0,0,12,15.591Zm0-4.955a1.564,1.564,0,0,0-.833.239,1.436,1.436,0,0,0-.552.635,1.341,1.341,0,0,0-.085.818,1.394,1.394,0,0,0,.41.725,1.529,1.529,0,0,0,.768.387,1.583,1.583,0,0,0,.867-.081,1.484,1.484,0,0,0,.673-.521,1.36,1.36,0,0,0,.253-.786,1.377,1.377,0,0,0-.439-1A1.547,1.547,0,0,0,12,10.636Z" transform="translate(367 112.374)"/>
    </g>
  </g>
</svg>
